<svg xmlns="http://www.w3.org/2000/svg" width="1280" height="240" viewBox="0 0 1280 240" font-family="-apple-system, 'Segoe UI', Inter, Helvetica, Arial, sans-serif" role="img">
<title>Flag 13: A human heartbeat</title>
<defs>
<linearGradient id="bg" x1="0" y1="0" x2="1" y2="1"><stop offset="0" stop-color="#130c02"/><stop offset="1" stop-color="#3d2b08"/></linearGradient>
<linearGradient id="shine" x1="0" y1="0" x2="1" y2="0"><stop offset="0" stop-color="#ffffff" stop-opacity="0"/><stop offset="0.5" stop-color="#ffffff" stop-opacity="0.10"/><stop offset="1" stop-color="#ffffff" stop-opacity="0"/></linearGradient>
<clipPath id="card"><rect x="1" y="1" width="1278" height="238" rx="22"/></clipPath>
<radialGradient id="core-flag" cx="35%" cy="30%" r="75%"><stop offset="0" stop-color="#1a4470"/><stop offset="1" stop-color="#040a14"/></radialGradient>
<radialGradient id="core-semi-holy-grail" cx="35%" cy="30%" r="75%"><stop offset="0" stop-color="#444d5e"/><stop offset="1" stop-color="#05070c"/></radialGradient>
<radialGradient id="core-holy-grail" cx="35%" cy="30%" r="75%"><stop offset="0" stop-color="#6b4e12"/><stop offset="1" stop-color="#0b0702"/></radialGradient>
<radialGradient id="core-trial" cx="35%" cy="30%" r="75%"><stop offset="0" stop-color="#1c4d2e"/><stop offset="1" stop-color="#030a05"/></radialGradient>
<filter id="blur" x="-50%" y="-50%" width="200%" height="200%"><feGaussianBlur stdDeviation="9"/></filter>
</defs>
<g clip-path="url(#card)"><rect width="1280" height="240" fill="url(#bg)"/>
<circle cx="388.9" cy="70.6" r="0.7" fill="#dfe8ff" opacity="0.66"><animate attributeName="opacity" values="0.66;0.05;0.66" dur="3.7s" begin="0.4s" repeatCount="indefinite"/></circle>
<circle cx="86.9" cy="136.8" r="1.2" fill="#dfe8ff" opacity="0.64"><animate attributeName="opacity" values="0.64;0.05;0.64" dur="4.3s" begin="2.4s" repeatCount="indefinite"/></circle>
<circle cx="319.8" cy="217.9" r="1.2" fill="#dfe8ff" opacity="0.36"><animate attributeName="opacity" values="0.36;0.05;0.36" dur="3.4s" begin="4.4s" repeatCount="indefinite"/></circle>
<circle cx="313.0" cy="141.0" r="0.7" fill="#dfe8ff" opacity="0.30"><animate attributeName="opacity" values="0.30;0.05;0.30" dur="4.8s" begin="4.7s" repeatCount="indefinite"/></circle>
<circle cx="258.5" cy="112.8" r="0.5" fill="#dfe8ff" opacity="0.59"><animate attributeName="opacity" values="0.59;0.05;0.59" dur="5.6s" begin="4.2s" repeatCount="indefinite"/></circle>
<circle cx="1209.5" cy="66.4" r="0.9" fill="#dfe8ff" opacity="0.34"><animate attributeName="opacity" values="0.34;0.05;0.34" dur="3.8s" begin="4.3s" repeatCount="indefinite"/></circle>
<circle cx="135.7" cy="48.7" r="1.2" fill="#dfe8ff" opacity="0.16"><animate attributeName="opacity" values="0.16;0.05;0.16" dur="3.5s" begin="0.8s" repeatCount="indefinite"/></circle>
<circle cx="618.4" cy="45.1" r="0.7" fill="#dfe8ff" opacity="0.22"><animate attributeName="opacity" values="0.22;0.05;0.22" dur="3.0s" begin="4.1s" repeatCount="indefinite"/></circle>
<circle cx="1204.7" cy="202.0" r="0.9" fill="#dfe8ff" opacity="0.25"><animate attributeName="opacity" values="0.25;0.05;0.25" dur="2.9s" begin="2.9s" repeatCount="indefinite"/></circle>
<circle cx="198.3" cy="42.4" r="1.2" fill="#dfe8ff" opacity="0.63"><animate attributeName="opacity" values="0.63;0.05;0.63" dur="3.3s" begin="1.3s" repeatCount="indefinite"/></circle>
<circle cx="1020.7" cy="146.0" r="1.2" fill="#dfe8ff" opacity="0.37"/>
<circle cx="320.8" cy="50.0" r="0.5" fill="#dfe8ff" opacity="0.54"/>
<circle cx="1179.6" cy="46.0" r="0.5" fill="#dfe8ff" opacity="0.30"/>
<circle cx="1239.7" cy="41.8" r="0.9" fill="#dfe8ff" opacity="0.19"/>
<circle cx="1124.2" cy="30.3" r="0.9" fill="#dfe8ff" opacity="0.66"/>
<circle cx="164.3" cy="226.9" r="0.7" fill="#dfe8ff" opacity="0.42"/>
<circle cx="1183.8" cy="150.9" r="1.2" fill="#dfe8ff" opacity="0.50"/>
<circle cx="970.9" cy="95.9" r="1.2" fill="#dfe8ff" opacity="0.26"/>
<circle cx="272.6" cy="52.7" r="1.2" fill="#dfe8ff" opacity="0.52"/>
<circle cx="863.1" cy="192.2" r="0.9" fill="#dfe8ff" opacity="0.57"/>
<circle cx="29.0" cy="39.4" r="1.2" fill="#dfe8ff" opacity="0.19"/>
<circle cx="262.2" cy="189.3" r="0.5" fill="#dfe8ff" opacity="0.25"/>
<circle cx="389.3" cy="160.3" r="1.2" fill="#dfe8ff" opacity="0.27"/>
<circle cx="835.7" cy="159.1" r="0.7" fill="#dfe8ff" opacity="0.52"/>
<circle cx="228.7" cy="78.2" r="1.2" fill="#dfe8ff" opacity="0.36"/>
<circle cx="786.3" cy="115.7" r="0.9" fill="#dfe8ff" opacity="0.59"/>
<circle cx="809.1" cy="212.1" r="1.2" fill="#dfe8ff" opacity="0.41"/>
<circle cx="337.8" cy="141.1" r="0.7" fill="#dfe8ff" opacity="0.67"/>
<circle cx="876.6" cy="50.4" r="0.7" fill="#dfe8ff" opacity="0.37"/>
<circle cx="72.7" cy="64.5" r="0.5" fill="#dfe8ff" opacity="0.55"/>
<circle cx="44.4" cy="218.9" r="0.7" fill="#dfe8ff" opacity="0.57"/>
<circle cx="801.0" cy="65.4" r="0.5" fill="#dfe8ff" opacity="0.50"/>
<circle cx="643.6" cy="120.8" r="0.5" fill="#dfe8ff" opacity="0.34"/>
<circle cx="654.2" cy="91.4" r="0.9" fill="#dfe8ff" opacity="0.69"/>
<circle cx="1038.0" cy="110.9" r="0.9" fill="#dfe8ff" opacity="0.26"/>
<circle cx="1250.7" cy="63.7" r="0.9" fill="#dfe8ff" opacity="0.22"/>
<circle cx="847.1" cy="88.3" r="0.9" fill="#dfe8ff" opacity="0.44"/>
<circle cx="63.3" cy="139.3" r="0.5" fill="#dfe8ff" opacity="0.24"/>
<circle cx="820.8" cy="114.1" r="0.9" fill="#dfe8ff" opacity="0.19"/>
<circle cx="102.4" cy="161.6" r="0.9" fill="#dfe8ff" opacity="0.37"/>
<circle cx="68.1" cy="118.6" r="0.9" fill="#dfe8ff" opacity="0.68"/>
<circle cx="84.9" cy="161.7" r="0.7" fill="#dfe8ff" opacity="0.20"/>
<circle cx="417.7" cy="19.2" r="0.9" fill="#dfe8ff" opacity="0.50"/>
<circle cx="437.6" cy="69.0" r="1.2" fill="#dfe8ff" opacity="0.31"/>
<circle cx="170.2" cy="182.2" r="0.5" fill="#dfe8ff" opacity="0.65"/>
<circle cx="52.5" cy="90.3" r="0.9" fill="#dfe8ff" opacity="0.41"/>
<circle cx="343.6" cy="178.2" r="1.2" fill="#dfe8ff" opacity="0.47"/>
<circle cx="887.6" cy="99.6" r="0.5" fill="#dfe8ff" opacity="0.57"/>
<circle cx="796.0" cy="63.4" r="0.7" fill="#dfe8ff" opacity="0.48"/>
<circle cx="543.3" cy="155.8" r="1.2" fill="#dfe8ff" opacity="0.31"/>
<circle cx="324.9" cy="14.6" r="0.7" fill="#dfe8ff" opacity="0.65"/>
<circle cx="463.0" cy="14.9" r="0.5" fill="#dfe8ff" opacity="0.20"/>
<circle cx="869.5" cy="167.0" r="0.5" fill="#dfe8ff" opacity="0.19"/>
<circle cx="786.6" cy="20.3" r="0.9" fill="#dfe8ff" opacity="0.50"/>
<circle cx="1085.0" cy="78.8" r="0.7" fill="#dfe8ff" opacity="0.27"/>
<circle cx="350.1" cy="141.0" r="0.7" fill="#dfe8ff" opacity="0.70"/>
<circle cx="928.7" cy="71.8" r="0.9" fill="#dfe8ff" opacity="0.20"/>
<circle cx="254.6" cy="131.9" r="1.2" fill="#dfe8ff" opacity="0.46"/>
<circle cx="6.7" cy="85.8" r="0.5" fill="#dfe8ff" opacity="0.54"/>
<circle cx="413.2" cy="8.3" r="0.7" fill="#dfe8ff" opacity="0.63"/>
<rect x="-420" y="0" width="360" height="240" fill="url(#shine)" transform="skewX(-18)"><animate attributeName="x" from="-420" to="1500" dur="7s" repeatCount="indefinite"/></rect>
</g>
<rect x="1" y="1" width="1278" height="238" rx="22" fill="none" stroke="#f2c14e" stroke-opacity="0.4" stroke-width="1.5"/>
<circle cx="128" cy="120" r="88" fill="#f2c14e" filter="url(#blur)" opacity="0.28"/>
<circle cx="128" cy="120" r="80" fill="url(#core-holy-grail)"/>
<circle cx="128" cy="120" r="79.2" fill="none" stroke="#f2c14e" stroke-width="1.5" stroke-opacity="0.75"/>
<g transform="translate(128.0 120.0) scale(1.250)">
<g transform="translate(0 -4)"><g><animateTransform attributeName="transform" type="scale" values="1;1.09;1;1.05;1;1" keyTimes="0;0.1;0.2;0.3;0.4;1" dur="1.1s" repeatCount="indefinite"/><path d="M 0 20 C -30 0 -32 -22 -15 -27 C -7 -29 -2 -24 0 -18 C 2 -24 7 -29 15 -27 C 32 -22 30 0 0 20 Z" fill="#ff4d6d"/></g></g>
<path d="M -48 24 L -24 24 L -20 20 L -16 24 L -11 24 L -8 29 L -4 -8 L 0 36 L 4 24 L 12 24 L 17 18 L 22 24 L 48 24" fill="none" stroke="#f3f6fb" stroke-width="1.6" stroke-linejoin="round" opacity="0.35"/>
<path d="M -48 24 L -24 24 L -20 20 L -16 24 L -11 24 L -8 29 L -4 -8 L 0 36 L 4 24 L 12 24 L 17 18 L 22 24 L 48 24" fill="none" stroke="#f3f6fb" stroke-width="2.6" stroke-linejoin="round" stroke-linecap="round" stroke-dasharray="190" stroke-dashoffset="190"><animate attributeName="stroke-dashoffset" from="190" to="-190" dur="2.2s" repeatCount="indefinite"/></path>
</g>
<rect x="262" y="30" width="144" height="28" rx="14" fill="#f2c14e" fill-opacity="0.12" stroke="#f2c14e" stroke-opacity="0.55"/>
<text x="334" y="49" text-anchor="middle" fill="#f2c14e" font-size="12" font-weight="700" letter-spacing="2.2">HOLY GRAIL 13</text>
<rect x="417" y="30" width="135" height="28" rx="14" fill="#b9c4d6" fill-opacity="0.12" stroke="#b9c4d6" stroke-opacity="0.55"/>
<text x="485" y="49" text-anchor="middle" fill="#b9c4d6" font-size="12" font-weight="700" letter-spacing="2.2">STONE · LIFE</text>
<text x="262" y="112" fill="#f4f7fb" font-size="40.0" font-weight="700">A human heartbeat</text>
<text x="262" y="146" fill="#a9b5c8" font-size="14.5">One person's heart, from its MRI: the blood it pumps and the vortex inside</text>
<rect x="262" y="176" width="145" height="30" rx="15" fill="#8fa3c0" fill-opacity="0.14" stroke="#8fa3c0" stroke-opacity="0.7"/>
<text x="334" y="196" text-anchor="middle" fill="#8fa3c0" font-size="13" font-weight="700" letter-spacing="1.8">IN PREPARATION</text>
<rect x="910" y="22" width="346" height="196" rx="16" fill="#000000" fill-opacity="0.26" stroke="#ffffff" stroke-opacity="0.06"/>
<text x="934" y="62" fill="#7e8aa0" font-size="11.5" font-weight="700" letter-spacing="2.4">DIFFICULTY</text>
<text x="1232" y="64" text-anchor="end" fill="#f2c14e" font-size="26" font-weight="700">∞</text>
<text x="934" y="106" fill="#7e8aa0" font-size="11.5" font-weight="700" letter-spacing="2.4">ATTEMPTS</text>
<text x="1232" y="108" text-anchor="end" fill="#e9eef6" font-size="19" font-weight="700">0</text>
<text x="934" y="150" fill="#7e8aa0" font-size="11.5" font-weight="700" letter-spacing="2.4">CHALLENGERS</text>
<text x="1232" y="152" text-anchor="end" fill="#e9eef6" font-size="19" font-weight="700">0</text>
<text x="934" y="194" fill="#7e8aa0" font-size="11.5" font-weight="700" letter-spacing="2.4">RECORD</text>
<text x="1232" y="196" text-anchor="end" fill="#e9eef6" font-size="19" font-weight="700">unclaimed</text>
</svg>
